<svg xmlns="http://www.w3.org/2000/svg" width="128" height="128" viewBox="0 0 686 793">
    <path d="M343,0l-343,198.042l0,396.083l343,198.042l343,-198.042l0,-396.083l-107.375,-62l-9.417,-1.375l-122.625,-67.5l-0.333,-7.542l-103.25,-59.625Z" style="fill:#bb464b;"/>
    <path d="M686,198.042l-107.333,-62l-103.292,59.666l107.375,61.959l103.25,-59.625Z" style="fill:#e0684b;"/>
    <path d="M103.25,257.667l343.042,-198.042l-103.292,-59.625l-343,198.042l103.25,59.625Z" style="fill:#e0684b;"/>
    <path d="M235.625,458.083l107.375,61.959l107.375,-61.959l-107.375,-62l-107.375,62Z" style="fill:#e0684b;"/>
    <path d="M450.375,334.083l0,124l-107.375,61.959l-107.375,-61.959l0,-124l-132.375,-76.416l-0,276.833l239.75,138.417l239.75,-138.417l0,-276.833l-132.375,76.416Z" style="fill:#e0ded8;"/>
    <path d="M446.292,59.625l132.375,76.417l-103.292,59.666l107.375,61.959l-132.375,76.416l-107.375,-61.958l-107.375,61.958l-132.375,-76.416l343.042,-198.042Z" style="fill:#fff;"/>
    <path d="M103.25,257.667l132.375,76.416l0,124l107.375,61.959l0,152.875l-239.75,-138.417l-0,-276.833Z" style="fill:#d5d2ca;"/>
</svg>
