<svg xmlns="http://www.w3.org/2000/svg" width="128" height="128" viewBox="0 0 50 109">
    <path d="M48.806,43.375c-5.833,-25.333 -18,-32.083 -21.083,-36.833c-1.292,-2.125 -2.417,-4.292 -3.375,-6.542c-0.167,2.25 -0.458,3.667 -2.417,5.375c-3.916,3.417 -20.458,16.708 -21.875,45.5c-1.291,26.833 20.042,43.375 22.875,45.083c2.167,1.042 4.792,0 6.084,-0.958c10.291,-6.958 24.333,-25.458 19.791,-51.625" fill="#10aa50"/>
    <path d="M24.806,81.25c-0.541,6.583 -0.958,10.417 -2.375,14.167c0,-0 0.959,6.291 1.584,12.916l2.333,0c0.542,-4.666 1.375,-9.333 2.5,-13.916c-2.958,-1.375 -3.917,-7.375 -4.042,-13.167Z" fill="#b8c4c2"/>
    <path d="M29.306,94.792c-2.875,-1.334 -3.708,-7.542 -3.833,-13.334c0.708,-9.583 0.917,-19.166 0.625,-28.791c-0.167,-5 0.083,-46.584 -1.25,-52.667c0.917,2.042 1.958,4.042 3.083,6c3.084,4.792 15.125,11.542 20.875,37c4.5,26.208 -9.333,44.75 -19.5,51.792Z" fill="#12924f"/>
</svg>
