<svg xmlns="http://www.w3.org/2000/svg" width="128" height="128" viewBox="0 0 403 455">
    <path d="M201.371,454.232c-6.083,0 -12.133,-1.587 -17.458,-4.671l-55.575,-32.883c-8.296,-4.642 -4.246,-6.287 -1.509,-7.242c11.071,-3.841 13.313,-4.729 25.129,-11.429c1.23,-0.696 2.863,-0.429 4.134,0.317l42.696,25.346c1.545,0.858 3.729,0.858 5.154,-0l166.458,-96.075c1.55,-0.884 2.542,-2.667 2.542,-4.504l-0,-192.1c-0,-1.88 -0.992,-3.634 -2.584,-4.588l-166.387,-95.992c-1.538,-0.9 -3.579,-0.9 -5.129,0l-166.346,96.021c-1.617,0.925 -2.642,2.738 -2.642,4.559l0,192.1c0,1.837 1.025,3.579 2.625,4.45l45.6,26.345c24.742,12.371 39.892,-2.2 39.892,-16.837l-0,-189.663c-0,-2.683 2.154,-4.795 4.837,-4.795l21.105,-0c2.641,-0 4.825,2.112 4.825,4.795l-0,189.663c-0,33.021 -17.984,51.958 -49.288,51.958c-9.621,0 -17.196,0 -38.342,-10.421l-43.65,-25.129c-10.783,-6.233 -17.458,-17.887 -17.458,-30.366l0,-192.1c0,-12.48 6.675,-24.134 17.458,-30.338l166.455,-96.187c10.533,-5.955 24.533,-5.955 34.983,-0l166.446,96.187c10.779,6.233 17.483,17.858 17.483,30.338l0,192.1c0,12.479 -6.704,24.091 -17.483,30.366l-166.446,96.104c-5.321,3.084 -11.358,4.671 -17.525,4.671" style="fill:#679f64;"/>
    <path d="M252.788,321.887c-72.841,0 -88.1,-33.433 -88.1,-61.479c0,-2.667 2.142,-4.796 4.809,-4.796l21.52,0c2.405,0 4.409,1.729 4.784,4.075c3.25,21.909 12.937,32.967 56.987,32.967c35.067,-0 49.996,-7.933 49.996,-26.538c0,-10.725 -4.233,-18.687 -58.729,-24.025c-45.546,-4.504 -73.717,-14.566 -73.717,-51c0,-33.587 28.309,-53.616 75.775,-53.616c53.325,-0 79.713,18.508 83.054,58.216c0.125,1.371 -0.358,2.684 -1.27,3.705c-0.913,0.954 -2.184,1.537 -3.525,1.537l-21.605,0c-2.237,0 -4.216,-1.592 -4.67,-3.762c-5.184,-23.055 -17.788,-30.421 -51.984,-30.421c-38.287,-0 -42.737,13.337 -42.737,23.333c-0,12.108 5.25,15.629 56.946,22.471c51.154,6.762 75.454,16.337 75.454,52.292c-0,36.266 -30.242,57.041 -82.988,57.041" style="fill:#679f64;"/>
</svg>
