<svg xmlns="http://www.w3.org/2000/svg" width="128" height="128" viewBox="0 0 4358 4497">
    <g id="affinity_photo_icon">
        <path d="M4263.72,281.626c-0,-68.986 -56.014,-125 -124.999,-125l-3916.64,-0c-68.986,-0 -124.999,56.014 -124.999,125l-0,3916.69c-0,68.986 56.013,125 124.999,125l3916.64,0c68.985,0 124.999,-56.014 124.999,-125l-0,-3916.69Z" style="fill:none;"/>
        <g>
            <clipPath id="_clip1">
                <path d="M4263.72,281.626c-0,-68.986 -56.014,-125 -124.999,-125l-3916.64,-0c-68.986,-0 -124.999,56.014 -124.999,125l-0,3916.69c-0,68.986 56.013,125 124.999,125l3916.64,0c68.985,0 124.999,-56.014 124.999,-125l-0,-3916.69Z"/>
            </clipPath>
            <g clip-path="url(#_clip1)">
                <path d="M4263.72,281.626c-0,-68.986 -56.014,-125 -124.999,-125l-3916.64,-0c-68.986,-0 -124.999,56.014 -124.999,125l-0,3916.69c-0,68.986 56.013,125 124.999,125l3916.64,0c68.985,0 124.999,-56.014 124.999,-125l-0,-3916.69Z" fill="#7e4dd2"/>
                <path d="M4263.72,281.626c-0,-68.986 -56.014,-125 -124.999,-125l-2333.32,-0l-1708.32,2958.94l-0,1082.75c-0,68.986 56.013,125 124.999,125l3916.64,0c68.985,0 124.999,-56.014 124.999,-125l-0,-3916.69Z" fill="#7140c2"/>
                <path d="M4315.89,4376.89l-1531.82,0.337l-885.04,-1532.92l2419.11,0c-0.587,510.588 -1.674,1022 -2.252,1532.58Zm-1594.91,0.289l-2415.86,-0l1208.61,-2091.04l1207.25,2091.04Zm-2477.61,-0l-199.537,-0l-0.673,-1095.63l928.88,-1609.37l833.327,0c-520.541,901.593 -1041.46,1803.42 -1562,2705.01l-0,-0.009Zm2117.57,-2704.76c80.119,1 156.533,44.938 197.66,114.127c63.837,109.488 126.751,219.496 190.126,329.245c38.491,67.446 41.378,154.119 3.657,224.732c-0.905,1.703 -1.829,3.387 -2.791,5.081c-62.865,110.037 -126.702,219.496 -190.077,329.245c-39.415,67.677 -114.078,112.327 -192.792,114.945c-1.914,0.067 -5.744,-0 -5.744,-0l-359.457,-0c-78.579,-0.337 -154.752,-41.532 -196.371,-108.402c-1.048,-1.635 -2.04,-3.3 -3.04,-4.965c-63.799,-109.498 -126.712,-219.497 -190.087,-329.245c-38.876,-68.034 -40.753,-155.313 -3.705,-224.751c0.914,-1.694 1.876,-3.388 2.79,-5.072c62.875,-110.037 126.751,-219.496 190.078,-329.245c39.376,-67.523 114.125,-112.953 192.791,-115.57c1.963,-0.068 3.878,-0.096 5.793,-0.125c120.418,-0.51 240.789,-0.51 361.169,-0Zm1956.64,-1569.69l0,2687.06l-1761.36,-0l1551.37,-2687.06l209.986,-0Zm-1470.57,2074.14l-1083.04,-1875.91l114.462,-198.23l2166.07,-0l-1197.5,2074.14Zm-385.409,-558.837l-1457.91,-0.231l728.747,-1262.25c242.916,420.749 486.236,841.739 729.161,1262.48Z" fill="#58328a"/>
                <path d="M212.248,4323.31l-114.582,0l-0.625,-1027.33l906.243,-1569.68l708.328,-0l-1499.36,2597.01Zm4051.47,-1425l-0,1425.01l-1448.57,-0.004l-822.702,-1425l2271.28,-0Zm-1636.07,1425l-2229.15,0l1115.2,-1929.44l1113.95,1929.44Zm1636.07,-1587.5l-1614.11,-0l1489.07,-2579.18l124.999,-0l0.042,2579.18Zm-1904.32,-1012.44c61.708,0.259 120.749,36.526 152.665,90.272c0.334,0.545 0.959,1.641 0.959,1.641l187.29,324.435c-0,0 1.083,1.813 1.583,2.688c30.625,53.554 31.792,121.038 1.209,175.567c-62.792,109.851 -126.541,219.177 -189.791,328.765c-31.083,53.296 -89.916,88.067 -152.415,88.846c-119.291,0.5 -358.456,0.225 -358.789,0.225c-61.708,-0.258 -121.708,-33.179 -153.624,-86.926c-0.708,-1.166 -2.083,-3.541 -2.083,-3.541c-0,-0 -187.332,-324.469 -187.749,-325.223c-30.625,-53.554 -30.583,-122.746 0,-177.276l1.375,-2.404c0,0 125.374,-217.572 188.165,-326.36c31.083,-53.296 90,-89.963 152.499,-90.746c1.042,-0.004 3.125,-0.05 3.125,-0.05l353.456,0.087l2.125,0Zm-449.872,-1566.75l2041.65,-0l-1104.16,1912.49l-1020.83,-1768.15l83.332,-144.338Zm458.33,1407.3l-1270.82,-0l635.412,-1100.58l635.412,1100.58Z" style="fill:url(#_Radial2);"/>
                <path d="M112.499,4496.11l-112.499,-3.584l1.333,-1030.73l1001.95,-1735.49l708.328,-0l-1599.11,2769.81Zm2608.9,-10.417l-2409.11,-13.208l1201.41,-2078.62l1207.7,2091.82Zm1630.99,-6.208l-1452.74,-9.834l-907.202,-1571.34l2365.44,-0l-5.5,1581.17Zm-3320.22,-2703.18l-980.868,1698.92l-1.25,968.889l34.125,1.083l1540.86,-2668.89l-592.87,-0Zm-633.495,2646.68l2235.86,12.25l-1120.83,-1941.4l-1115.03,1929.15Zm1680.36,-1474.67l849.619,1471.55l1373.91,9.292l5.125,-1480.84l-2228.65,0Zm278.248,-1224.94l2.125,0l0.75,0.004l0.708,0.009l0.708,0.012l0.75,0.013l1.417,0.041l0.708,0.025l0.75,0.025l1.417,0.067l0.75,0.038l0.708,0.037l1.417,0.092l0.75,0.05l0.708,0.054l1.417,0.117l0.75,0.062l1.417,0.133l1.416,0.15l0.75,0.08l0.709,0.079l1.416,0.175l1.417,0.183l1.417,0.2l0.708,0.104l1.417,0.217l1.416,0.229l1.417,0.238l1.417,0.254l1.416,0.266l1.417,0.276l1.417,0.291l1.375,0.3l1.416,0.313l1.417,0.325l1.375,0.337l1.417,0.35l1.375,0.359l1.375,0.375l1.375,0.383l1.416,0.392l1.375,0.408l1.375,0.417l1.375,0.429l1.333,0.441l1.375,0.455l1.375,0.462l1.334,0.475l1.375,0.483l1.333,0.496l1.333,0.509l1.375,0.52l1.334,0.53l1.333,0.541l1.333,0.55l1.292,0.563l1.333,0.571l1.334,0.583l1.291,0.596l1.334,0.604l1.291,0.612l1.292,0.625l1.292,0.638l1.291,0.646l1.292,0.654l1.292,0.667l1.25,0.679l1.291,0.687l1.25,0.696l1.25,0.704l1.25,0.717l1.25,0.729l1.25,0.738l1.25,0.745l1.209,0.755l1.249,0.766l1.209,0.775l1.208,0.784l1.208,0.795l1.209,0.805l1.208,0.812l1.167,0.825l1.208,0.829l1.167,0.842l1.166,0.854l1.167,0.859l1.167,0.866l1.166,0.879l1.125,0.888l1.167,0.896l1.125,0.904l1.125,0.912l1.125,0.925l1.125,0.93l1.083,0.941l1.125,0.946l1.084,0.958l1.083,0.967l1.083,0.971l1.084,0.983l1.041,0.992l1.084,1l1.041,1.004l1.042,1.017l1.042,1.025l1,1.029l1.041,1.042l1,1.05l1,1.054l1,1.062l0.959,1.071l1,1.079l0.958,1.088l0.958,1.096l0.959,1.1l0.958,1.112l0.958,1.117l0.917,1.125l0.916,1.133l0.917,1.138l0.875,1.146l0.917,1.154l0.875,1.162l0.875,1.167l1.75,2.358l0.833,1.192l0.833,1.196l0.834,1.204l0.833,1.208l0.792,1.217l0.791,1.225l0.792,1.229l0.792,1.238l0.791,1.245l0.75,1.25l0.75,1.255l0.959,1.641l187.29,324.435l1.583,2.688l0.709,1.258l0.708,1.263l0.667,1.266l0.666,1.275l0.709,1.275l0.625,1.284l0.666,1.287l0.625,1.292l0.625,1.296l0.625,1.3l0.584,1.304l0.625,1.308l0.583,1.313l0.542,1.316l0.583,1.321l0.542,1.325l0.541,1.329l0.542,1.334l1,2.675l1,2.691l0.458,1.35l0.458,1.355l0.917,2.716l0.417,1.363l0.416,1.367l0.417,1.37l0.375,1.371l0.417,1.375l0.375,1.379l0.333,1.38l0.375,1.383l1,4.162l0.292,1.396l0.291,1.392l0.292,1.396l0.292,1.4l0.25,1.4l0.5,2.808l0.208,1.404l0.25,1.409l0.208,1.408l0.167,1.413l0.208,1.412l0.167,1.413l0.167,1.416l0.166,1.413l0.125,1.416l0.125,1.421l0.125,1.417l0.125,1.421l0.25,4.262l0.084,1.425l0.041,1.421l0.084,2.85l-0,5.696l-0.042,1.425l0,1.421l-0.083,1.425l-0.042,1.425l-0.083,1.421l-0.084,1.425l-0.166,2.841l-0.375,4.263l-0.167,1.421l-0.333,2.833l-0.167,1.413l-0.208,1.416l-0.417,2.825l-0.25,1.409l-0.208,1.408l-0.25,1.408l-0.292,1.404l-0.25,1.405l-0.292,1.404l-0.291,1.4l-0.334,1.396l-0.291,1.396l-0.334,1.395l-0.333,1.392l-0.75,2.775l-0.75,2.767l-0.417,1.379l-0.375,1.375l-0.458,1.375l-0.417,1.371l-0.916,2.733l-0.459,1.363l-0.458,1.358l-0.5,1.358l-0.5,1.35l-0.541,1.35l-0.5,1.346l-0.542,1.342l-0.542,1.337l-0.583,1.338l-0.542,1.329l-0.625,1.329l-0.583,1.325l-0.583,1.317l-0.625,1.317l-0.625,1.312l-0.667,1.308l-0.625,1.3l-0.667,1.3l-0.708,1.292l-0.667,1.292l-1.416,2.566l-5.875,10.296l-5.917,10.292l-5.875,10.292l-5.917,10.291l-17.749,30.851l-11.834,20.558l-5.916,10.275l-11.875,20.546l-11.875,20.542l-11.875,20.537l-11.917,20.534l-11.875,20.533l-23.791,41.063l-11.875,20.533l-23.75,41.076l-11.875,20.546l-0.75,1.245l-0.75,1.238l-0.75,1.233l-0.75,1.225l-0.75,1.217l-0.791,1.213l-0.792,1.204l-0.833,1.196l-0.792,1.191l-0.833,1.184l-0.834,1.175l-0.833,1.166l-0.833,1.163l-0.875,1.154l-0.875,1.146l-0.875,1.137l-0.875,1.129l-0.917,1.125l-0.875,1.117l-0.917,1.108l-0.916,1.1l-0.959,1.092l-0.916,1.088l-0.958,1.075l-0.959,1.07l-0.958,1.063l-0.958,1.054l-1,1.046l-1,1.037l-1,1.03l-1,1.02l-1,1.017l-1.042,1.004l-1.042,0.996l-1,0.988l-1.083,0.983l-1.042,0.971l-1.041,0.962l-1.084,0.959l-1.083,0.946l-1.083,0.937l-1.084,0.929l-1.083,0.921l-1.125,0.913l-1.083,0.904l-1.125,0.891l-1.125,0.888l-1.167,0.875l-1.125,0.871l-1.167,0.858l-1.125,0.85l-1.166,0.842l-1.167,0.833l-1.167,0.821l-1.166,0.812l-1.209,0.805l-1.208,0.795l-1.167,0.788l-1.208,0.775l-1.208,0.767l-1.25,0.758l-1.209,0.75l-1.208,0.737l-1.25,0.73l-1.25,0.72l-1.25,0.709l-1.25,0.7l-1.25,0.691l-1.25,0.68l-1.291,0.67l-1.25,0.663l-1.292,0.65l-1.292,0.642l-1.291,0.629l-1.292,0.621l-1.292,0.612l-1.291,0.6l-1.334,0.592l-1.291,0.579l-1.334,0.571l-1.333,0.558l-1.333,0.55l-1.334,0.538l-1.333,0.529l-1.333,0.517l-1.334,0.508l-1.333,0.496l-1.375,0.487l-1.375,0.475l-1.333,0.467l-1.375,0.454l-1.375,0.442l-1.375,0.433l-1.375,0.421l-1.375,0.408l-1.375,0.4l-1.417,0.392l-1.375,0.375l-1.416,0.367l-1.375,0.354l-1.417,0.346l-1.417,0.333l-1.375,0.321l-1.416,0.308l-1.417,0.3l-1.417,0.288l-1.416,0.275l-1.417,0.262l-1.458,0.254l-1.417,0.242l-1.417,0.229l-1.458,0.217l-1.417,0.204l-1.458,0.196l-1.417,0.183l-1.458,0.171l-1.458,0.158l-1.417,0.146l-1.458,0.133l-1.459,0.125l-1.458,0.109l-1.458,0.1l-1.459,0.083l-1.458,0.075l-1.458,0.063l-1.459,0.05l-1.458,0.037l-1.458,0.021l-11.542,0.046l-12.166,0.041l-12.709,0.034l-13.249,0.033l-13.667,0.029l-14.042,0.025l-14.374,0.021l-14.584,0.017l-29.666,0.029l-29.875,0.017l-29.5,0.008l-28.624,-0l-27.25,-0.004l-25.333,-0.009l-22.875,-0.012l-19.917,-0.017l-28.791,-0.021l-10.625,-0.012l-1.458,-0.013l-1.417,-0.025l-1.458,-0.033l-1.459,-0.05l-1.416,-0.058l-1.459,-0.071l-1.416,-0.083l-1.459,-0.096l-1.416,-0.104l-1.459,-0.121l-1.416,-0.129l-1.459,-0.142l-1.416,-0.15l-1.417,-0.167l-1.458,-0.175l-1.417,-0.187l-1.417,-0.2l-1.416,-0.209l-1.459,-0.22l-1.416,-0.234l-1.417,-0.246l-1.417,-0.254l-1.375,-0.266l-1.416,-0.28l-1.417,-0.287l-1.417,-0.3l-1.416,-0.313l-1.375,-0.32l-1.417,-0.334l-1.375,-0.346l-1.416,-0.354l-1.375,-0.366l-1.375,-0.375l-1.375,-0.388l-1.375,-0.4l-1.417,-0.408l-1.375,-0.421l-1.333,-0.429l-1.375,-0.442l-1.375,-0.454l-1.334,-0.463l-1.375,-0.475l-1.375,-0.483l-1.333,-0.492l-1.333,-0.504l-1.334,-0.516l-1.333,-0.525l-1.333,-0.538l-1.334,-0.546l-1.333,-0.558l-1.292,-0.567l-1.333,-0.575l-1.292,-0.587l-1.333,-0.6l-1.292,-0.604l-1.291,-0.621l-1.292,-0.625l-1.292,-0.638l-1.291,-0.65l-1.25,-0.658l-1.292,-0.667l-1.25,-0.679l-1.25,-0.688l-1.25,-0.695l-1.25,-0.709l-1.25,-0.716l-1.25,-0.725l-1.25,-0.738l-1.208,-0.746l-1.208,-0.754l-1.25,-0.767l-1.209,-0.775l-1.166,-0.783l-1.209,-0.796l-1.208,-0.8l-1.167,-0.812l-1.166,-0.825l-1.209,-0.829l-1.125,-0.842l-1.166,-0.85l-1.167,-0.858l-1.125,-0.871l-1.167,-0.875l-1.125,-0.888l-1.125,-0.896l-1.125,-0.904l-1.083,-0.916l-1.125,-0.921l-1.083,-0.934l-1.084,-0.941l-1.083,-0.95l-1.083,-0.959l-1.084,-0.966l-1.041,-0.975l-1.042,-0.988l-1.042,-0.992l-1.041,-1.004l-1.042,-1.012l-1,-1.017l-1,-1.029l-1,-1.038l-1,-1.045l-1,-1.055l-0.958,-1.062l-1,-1.071l-0.958,-1.079l-0.959,-1.092l-0.916,-1.096l-0.959,-1.104l-0.916,-1.112l-0.917,-1.121l-0.917,-1.129l-0.875,-1.138l-0.916,-1.146l-0.875,-1.154l-0.875,-1.158l-0.834,-1.171l-0.875,-1.179l-0.833,-1.183l-0.833,-1.196l-0.834,-1.2l-0.416,-0.604l-0.375,-0.609l-0.417,-0.604l-0.417,-0.612l-0.375,-0.609l-0.416,-0.616l-0.375,-0.613l-0.417,-0.621l-0.375,-0.617l-0.375,-0.62l-0.75,-1.25l-0.417,-0.625l-0.333,-0.63l-2.083,-3.541l-187.749,-325.223l-0.375,-0.629l-0.333,-0.629l-0.334,-0.633l-0.375,-0.634l-0.666,-1.266l-0.709,-1.275l-0.666,-1.28l-0.625,-1.287l-0.667,-1.292l-0.625,-1.296l-0.625,-1.3l-0.625,-1.304l-1.166,-2.625l-0.584,-1.321l-0.583,-1.325l-0.542,-1.329l-0.541,-1.333l-0.542,-1.338l-0.5,-1.341l-0.542,-1.346l-0.5,-1.35l-0.458,-1.354l-0.5,-1.359l-0.458,-1.362l-0.459,-1.367l-0.416,-1.371l-0.459,-1.371l-0.833,-2.758l-0.75,-2.767l-0.75,-2.783l-0.375,-1.396l-0.667,-2.8l-0.291,-1.404l-0.334,-1.404l-0.291,-1.413l-0.292,-1.408l-0.25,-1.417l-0.292,-1.412l-0.25,-1.421l-0.208,-1.421l-0.25,-1.421l-0.417,-2.85l-0.208,-1.429l-0.333,-2.858l-0.334,-2.867l-0.125,-1.433l-0.166,-1.438l-0.084,-1.437l-0.125,-1.438l-0.166,-2.883l-0.084,-1.438l-0.041,-1.441l-0.042,-1.446l-0.083,-2.884l-0,-1.445l-0.042,-1.442l0.042,-1.446l-0,-1.446l0.041,-1.441l0.084,-2.892l0.041,-1.442l0.084,-1.441l0.083,-1.446l0.083,-1.442l0.375,-4.325l0.125,-1.437l0.667,-5.75l0.417,-2.867l0.208,-1.429l0.5,-2.859l0.5,-2.85l0.292,-1.421l0.25,-1.42l0.333,-1.421l0.292,-1.417l0.666,-2.825l0.667,-2.817l0.375,-1.404l0.75,-2.8l0.417,-1.396l0.833,-2.783l0.417,-1.383l0.916,-2.767l0.917,-2.75l1,-2.733l0.5,-1.363l1.083,-2.717l0.542,-1.35l0.542,-1.345l0.541,-1.342l1.167,-2.675l0.625,-1.329l0.583,-1.325l0.625,-1.321l0.625,-1.313l0.667,-1.312l0.666,-1.308l0.667,-1.3l0.667,-1.296l0.666,-1.292l0.709,-1.287l0.708,-1.28l1.375,-2.404l20.583,-35.696l22.417,-38.883l27.541,-47.805l30.5,-52.908l31.25,-54.18l29.791,-51.629l13.625,-23.667l12.458,-21.592l0.75,-1.246l0.75,-1.241l0.75,-1.234l0.75,-1.225l0.792,-1.221l0.792,-1.216l0.791,-1.209l0.792,-1.2l0.792,-1.195l0.833,-1.192l1.667,-2.358l0.875,-1.167l0.833,-1.163l0.875,-1.154l0.875,-1.15l0.917,-1.137l0.875,-1.138l0.916,-1.125l0.917,-1.121l0.917,-1.112l0.916,-1.104l0.959,-1.1l0.916,-1.092l1,-1.083l0.959,-1.075l0.958,-1.067l1,-1.063l0.958,-1.054l1,-1.046l1.042,-1.037l1,-1.029l1,-1.021l1.041,-1.017l1.042,-1.004l1.042,-1l1.083,-0.987l1.042,-0.984l1.083,-0.975l1.042,-0.962l1.125,-0.959l1.083,-0.95l1.083,-0.941l1.125,-0.929l1.084,-0.925l1.125,-0.917l1.125,-0.904l1.125,-0.9l1.166,-0.888l1.125,-0.879l1.167,-0.871l1.167,-0.862l1.166,-0.855l1.167,-0.845l1.167,-0.834l1.208,-0.829l1.208,-0.817l1.167,-0.808l1.208,-0.796l1.209,-0.791l1.25,-0.78l1.208,-0.77l1.25,-0.759l1.208,-0.754l1.25,-0.742l1.25,-0.733l1.25,-0.721l1.25,-0.712l1.292,-0.704l1.25,-0.692l1.291,-0.683l1.25,-0.671l1.292,-0.663l1.292,-0.654l1.291,-0.642l1.292,-0.633l1.333,-0.621l1.292,-0.612l1.333,-0.6l1.292,-0.592l1.333,-0.579l1.334,-0.571l1.333,-0.558l1.333,-0.55l1.334,-0.538l1.375,-0.529l1.333,-0.517l1.375,-0.504l1.333,-0.491l1.375,-0.484l1.375,-0.475l1.375,-0.462l1.375,-0.45l1.375,-0.438l1.375,-0.429l1.375,-0.412l1.375,-0.409l1.417,-0.391l1.375,-0.384l1.417,-0.371l1.416,-0.358l1.375,-0.346l1.417,-0.337l1.416,-0.321l1.417,-0.313l1.417,-0.3l1.416,-0.287l1.417,-0.279l1.458,-0.263l1.417,-0.254l1.417,-0.238l1.458,-0.229l0.708,-0.108l1.417,-0.208l0.75,-0.1l1.417,-0.192l0.75,-0.092l0.708,-0.087l0.708,-0.084l0.75,-0.083l1.417,-0.15l0.75,-0.075l1.417,-0.133l0.75,-0.063l0.708,-0.058l0.75,-0.054l0.708,-0.054l0.75,-0.05l0.709,-0.046l0.75,-0.046l0.708,-0.038l0.75,-0.037l0.708,-0.033l0.75,-0.03l0.709,-0.029l0.75,-0.025l0.708,-0.021l0.75,-0.016l0.708,-0.013l0.75,-0.012l0.959,-0.009l1,-0.016l1.166,-0.025l353.456,0.087Zm1992.4,1012.44l-1700.07,-0l1574.9,-2727.85l129.624,-7.954l-4.459,2735.81Zm-2346.07,-962.513l-1.292,0.025l-1,0.008l-1,0.017l-0.5,0.012l-0.541,0.017l-1,0.033l-0.5,0.021l-0.5,0.025l-0.542,0.025l-1,0.058l-0.5,0.034l-0.542,0.033l-0.458,0.037l-0.542,0.038l-0.5,0.042l-1,0.091l-0.541,0.046l-0.5,0.05l-1,0.108l-1,0.117l-1,0.125l-0.542,0.067l-0.5,0.066l-1,0.142l-0.5,0.075l-0.458,0.071l-1.084,0.171l-1,0.166l-1,0.175l-1,0.188l-1,0.196l-1.041,0.204l-1,0.212l-1,0.221l-1,0.234l-1,0.237l-1,0.246l-1,0.254l-1,0.267l-0.959,0.271l-1,0.283l-1,0.287l-1,0.296l-1,0.309l-1,0.32l-0.958,0.317l-1,0.329l-0.958,0.342l-1,0.35l-1,0.358l-0.958,0.363l-0.959,0.366l-1,0.384l-0.958,0.391l-0.958,0.396l-1.917,0.817l-0.958,0.421l-0.959,0.425l-0.958,0.441l-0.958,0.446l-1.917,0.909l-0.958,0.475l-1.834,0.95l-0.958,0.5l-1.833,1l-0.917,0.508l-0.917,0.525l-0.958,0.529l-0.917,0.534l-0.875,0.537l-0.916,0.558l-0.917,0.567l-0.875,0.55l-0.875,0.571l-0.917,0.587l-0.875,0.58l-0.875,0.595l-0.875,0.6l-0.875,0.609l-0.875,0.616l-0.875,0.613l-0.833,0.633l-0.875,0.625l-0.833,0.634l-0.834,0.658l-0.833,0.646l-0.875,0.671l-0.792,0.662l-0.833,0.658l-0.833,0.692l-0.792,0.688l-0.791,0.675l-0.792,0.7l-0.833,0.708l-0.792,0.712l-0.792,0.721l-0.75,0.713l-0.791,0.716l-0.75,0.742l-0.792,0.733l-0.708,0.738l-0.792,0.762l-0.75,0.755l-0.708,0.758l-0.709,0.746l-0.75,0.771l-0.75,0.8l-0.666,0.762l-0.709,0.792l-0.708,0.8l-0.708,0.783l-0.667,0.808l-0.667,0.796l-0.666,0.804l-0.667,0.83l-0.667,0.812l-0.666,0.821l-0.667,0.85l-0.625,0.833l-0.625,0.817l-0.625,0.842l-0.583,0.85l-1.25,1.716l-0.584,0.846l-0.583,0.875l-0.583,0.85l-0.542,0.863l-0.583,0.912l-0.584,0.875l-0.5,0.85l-0.541,0.879l-0.542,0.917l-0.542,0.896l-12.333,21.392l-13.666,23.658l-29.792,51.625l-31.208,54.176l-30.5,52.9l-27.541,47.804l-22.417,38.884l-20.541,35.633l-1.167,2.046l-0.458,0.809l-0.5,0.941l-0.5,0.921l-0.459,0.9l-0.5,0.929l-0.458,0.959l-0.458,0.937l-0.458,0.942l-0.459,0.946l-0.416,0.921l-0.417,0.954l-0.458,0.987l-0.417,0.959l-0.375,0.937l-0.417,1l-0.375,0.971l-0.375,0.946l-0.416,1.008l-0.334,0.983l-0.375,0.984l-0.375,0.991l-0.333,0.963l-0.333,0.996l-0.334,1.029l-0.291,1l-0.334,1.004l-0.291,1.008l-0.292,0.98l-0.292,1.045l-0.291,1.017l-0.25,0.983l-0.292,1.055l-0.25,1.02l-0.25,1.025l-0.25,1.03l-0.208,0.995l-0.25,1.034l-0.209,1.066l-0.625,3.113l-0.166,1.008l-0.167,1.042l-0.167,1.079l-0.166,1.046l-0.167,1.013l-0.125,1.083l-0.125,1.05l-0.125,1.017l-0.125,1.083l-0.125,1.054l-0.083,1.021l-0.125,1.054l-0.084,1.088l-0.083,1.054l-0.042,1.021l-0.083,1.058l-0.042,1.092l-0.041,1.058l-0.042,1.021l-0.042,1.058l0,2.146l-0.041,1.025l0.041,1.054l0,2.113l0.042,1.091l0.042,1.054l0.041,1.017l0.042,1.054l0.083,1.055l0.042,1.05l0.083,1.083l0.084,1.017l0.083,1.045l0.125,1.084l0.125,1.008l0.083,1.046l0.125,1.042l0.167,1.037l0.125,1.042l0.167,1.037l0.125,1.034l0.166,1.033l0.209,1.029l0.166,1.029l0.209,1.029l0.166,0.988l0.209,1.058l0.208,1.021l0.25,0.979l0.208,1.05l0.25,1.013l0.25,1.008l0.25,1.004l0.25,0.971l0.292,1l0.292,1.029l0.25,0.996l0.291,0.959l0.292,0.987l0.333,1.017l0.334,0.983l0.291,0.946l0.667,1.942l0.375,0.966l0.375,0.996l0.333,0.925l0.375,0.954l0.375,0.984l0.375,0.916l0.417,0.942l0.375,0.942l0.417,0.933l0.416,0.929l0.417,0.9l0.458,0.95l0.417,0.917l0.458,0.887l0.458,0.934l0.459,0.904l0.458,0.9l0.5,0.933l0.208,0.396l0.5,0.858l0.25,0.484l0.25,0.429l0.209,0.379l187.623,325.014l1.875,3.204l0.209,0.346l0.291,0.467l0.209,0.367l0.583,0.925l0.25,0.412l0.25,0.404l0.292,0.459l0.291,0.454l0.25,0.404l0.292,0.45l0.333,0.45l0.25,0.4l0.25,0.358l0.625,0.921l0.584,0.854l0.583,0.829l0.625,0.817l0.583,0.833l0.625,0.825l0.625,0.821l0.625,0.813l0.667,0.808l0.625,0.796l0.667,0.796l0.666,0.804l0.667,0.779l0.625,0.775l0.708,0.783l0.667,0.759l0.708,0.771l0.709,0.762l0.666,0.742l0.75,0.75l0.709,0.762l0.75,0.734l0.708,0.712l0.708,0.721l0.75,0.733l0.75,0.709l0.75,0.7l0.792,0.712l0.75,0.688l0.792,0.695l0.75,0.688l0.791,0.667l0.792,0.675l0.792,0.666l0.791,0.659l1.625,1.3l0.833,0.637l0.834,0.646l0.791,0.625l0.875,0.629l0.834,0.609l1.666,1.208l0.875,0.6l0.834,0.592l0.875,0.587l0.875,0.563l1.75,1.141l0.875,0.554l0.875,0.546l0.916,0.542l0.875,0.533l0.917,0.534l0.917,0.525l0.875,0.508l0.916,0.512l0.959,0.5l0.916,0.496l1.834,0.959l0.958,0.479l0.917,0.466l0.958,0.455l0.917,0.45l0.958,0.441l0.917,0.429l1,0.434l0.958,0.425l0.958,0.412l0.959,0.409l0.958,0.391l0.958,0.388l1,0.387l0.959,0.379l1,0.367l1,0.363l0.958,0.345l1,0.346l1,0.338l0.958,0.333l2,0.633l1,0.309l2,0.583l1,0.283l1,0.271l1.042,0.267l1,0.258l1,0.25l1,0.242l1.041,0.233l1,0.225l1.042,0.217l1,0.208l1.042,0.204l1,0.192l1.041,0.183l1.042,0.18l1,0.166l1.042,0.159l1,0.154l1.041,0.141l1.042,0.138l1,0.125l1.042,0.117l1.041,0.112l1.042,0.1l1,0.096l1.042,0.083l1.041,0.075l1.042,0.071l1,0.059l1.042,0.05l1.041,0.045l1.042,0.034l1.042,0.025l1,0.016l1.083,0.009l10.416,0.012l28.792,0.021l19.916,0.017l22.834,0.008l25.333,0.013l27.25,0.004l28.624,-0l29.5,-0.009l29.833,-0.016l29.667,-0.029l14.583,-0.017l14.333,-0.021l14.042,-0.025l13.666,-0.029l13.208,-0.033l12.709,-0.034l12.125,-0.041l11.166,-0.042l0.958,-0.017l1.042,-0.025l1.042,-0.037l1.041,-0.042l1.042,-0.054l1,-0.059l1.042,-0.07l1.041,-0.08l1.042,-0.087l1.042,-0.096l1,-0.104l1.041,-0.113l1.042,-0.125l1.042,-0.129l1,-0.137l1.041,-0.146l1.042,-0.158l1,-0.163l1.042,-0.175l1,-0.179l1.041,-0.192l1,-0.196l1.042,-0.204l1,-0.216l1.042,-0.225l1,-0.23l1,-0.237l1,-0.25l1,-0.254l1.041,-0.263l1,-0.275l1,-0.279l0.959,-0.287l1.041,-0.296l1,-0.309l0.959,-0.312l1,-0.317l1,-0.329l0.958,-0.337l1,-0.342l0.958,-0.354l1,-0.359l0.959,-0.362l1,-0.383l0.958,-0.384l0.958,-0.387l0.958,-0.4l0.959,-0.404l0.958,-0.413l0.958,-0.421l0.959,-0.425l0.958,-0.441l0.917,-0.446l0.958,-0.45l0.917,-0.459l0.958,-0.466l0.917,-0.475l0.958,-0.479l0.917,-0.484l0.875,-0.491l0.958,-0.513l0.875,-0.508l0.917,-0.513l0.916,-0.529l0.875,-0.525l0.917,-0.537l0.875,-0.55l0.917,-0.55l0.833,-0.55l0.917,-0.575l0.875,-0.571l0.833,-0.571l0.875,-0.588l0.875,-0.595l0.833,-0.592l0.834,-0.608l0.875,-0.617l0.833,-0.613l0.833,-0.62l0.792,-0.625l0.875,-0.646l0.792,-0.646l0.833,-0.646l0.792,-0.654l0.791,-0.663l0.792,-0.67l0.792,-0.659l0.791,-0.687l0.792,-0.705l0.792,-0.683l0.75,-0.687l0.75,-0.713l1.5,-1.408l0.75,-0.738l0.749,-0.721l0.709,-0.729l0.75,-0.737l0.708,-0.742l0.75,-0.767l0.667,-0.737l0.708,-0.742l0.667,-0.771l0.708,-0.775l0.708,-0.779l0.667,-0.791l1.333,-1.559l0.667,-0.808l0.625,-0.796l0.625,-0.779l0.667,-0.825l0.625,-0.838l0.625,-0.8l0.583,-0.82l0.625,-0.834l0.583,-0.816l0.584,-0.846l0.625,-0.85l0.583,-0.859l0.542,-0.837l0.541,-0.846l0.584,-0.879l0.541,-0.854l0.542,-0.888l0.542,-0.871l0.5,-0.85l0.541,-0.9l11.792,-20.387l11.875,-20.555l11.875,-20.545l11.916,-20.542l23.75,-41.067l11.917,-20.525l35.624,-61.576l11.834,-20.529l5.916,-10.258l5.917,-10.263l5.917,-10.271l5.916,-10.262l5.917,-10.267l5.875,-10.271l5.916,-10.271l11.75,-20.541l5.709,-9.971l0.458,-0.821l0.542,-0.95l0.458,-0.9l0.458,-0.904l0.5,-0.959l0.5,-0.966l0.417,-0.855l0.417,-0.916l0.5,-0.971l0.416,-0.921l0.417,-0.983l0.417,-0.925l0.375,-0.929l0.458,-0.988l0.375,-0.937l0.375,-0.934l0.375,-0.941l0.375,-1l0.375,-1.005l0.333,-0.945l0.667,-1.9l0.292,-0.95l0.666,-2.042l0.292,-0.892l0.583,-2.058l0.25,-0.896l0.292,-1.033l0.291,-1.038l0.209,-0.967l0.25,-0.975l0.25,-1.037l0.25,-1.042l0.208,-0.908l0.208,-1.05l0.209,-1.046l0.166,-0.912l0.209,-1.05l0.208,-1.055l0.125,-0.983l0.167,-0.983l0.333,-2.117l0.125,-0.987l0.125,-0.992l0.125,-0.988l0.25,-2.125l0.083,-0.991l0.084,-0.996l0.083,-0.992l0.167,-2.133l0.041,-0.996l0.042,-1.063l0.042,-1.07l0.041,-0.921l0.042,-1.067l0,-5.125l-0.042,-1.067l0,-1.062l-0.083,-1.992l-0.083,-1.062l-0.042,-1.063l-0.083,-0.996l-0.084,-0.991l-0.083,-1.059l-0.083,-1.062l-0.125,-0.988l-0.084,-1.058l-0.25,-1.975l-0.166,-1.125l-0.125,-0.983l-0.167,-0.984l-0.167,-1.05l-0.166,-1.045l-0.334,-1.959l-0.208,-1.112l-0.208,-0.971l-0.167,-0.975l-0.25,-1.038l-0.208,-0.966l-0.209,-1.034l-0.25,-1.033l-0.25,-0.963l-0.25,-1.025l-0.291,-1.025l-0.25,-0.954l-0.292,-0.954l-0.583,-2.033l-0.292,-1.013l-0.291,-0.941l-0.334,-0.942l-0.333,-1.071l-0.667,-1.867l-0.375,-1.058l-0.333,-0.929l-0.375,-0.925l-0.75,-1.967l-0.375,-0.975l-0.417,-0.916l-0.375,-0.913l-0.416,-0.962l-0.417,-0.967l-0.458,-0.958l-0.417,-0.955l-0.417,-0.895l-0.5,-0.95l-0.416,-0.888l-0.459,-0.942l-0.5,-0.937l-0.458,-0.875l-0.5,-0.929l-0.5,-0.925l-0.5,-0.921l-0.5,-0.863l-1.458,-2.504l-187.249,-324.377l-0.75,-1.266l-0.458,-0.809l-0.584,-0.92l-0.541,-0.896l-0.584,-0.913l-0.583,-0.904l-0.583,-0.875l-0.584,-0.871l-0.583,-0.887l-0.625,-0.909l-0.625,-0.85l-0.625,-0.87l-0.625,-0.884l-0.625,-0.833l-0.625,-0.854l-0.667,-0.867l-0.625,-0.837l-0.666,-0.83l-0.667,-0.845l-0.667,-0.825l-0.708,-0.834l-0.708,-0.825l-0.667,-0.8l-0.708,-0.812l-0.709,-0.809l-0.708,-0.8l-0.708,-0.796l-0.75,-0.783l-0.709,-0.779l-0.75,-0.779l-0.75,-0.763l-0.749,-0.775l-0.75,-0.754l-0.75,-0.746l-0.792,-0.775l-0.75,-0.733l-0.792,-0.721l-0.75,-0.733l-0.833,-0.729l-0.792,-0.721l-1.583,-1.417l-0.833,-0.696l-0.834,-0.708l-0.791,-0.679l-0.834,-0.675l-0.833,-0.671l-0.833,-0.658l-0.834,-0.667l-0.833,-0.658l-0.833,-0.638l-0.875,-0.642l-0.875,-0.637l-0.875,-0.625l-0.834,-0.621l-0.875,-0.6l-0.875,-0.617l-0.875,-0.591l-0.916,-0.592l-0.875,-0.579l-0.875,-0.571l-0.917,-0.575l-0.875,-0.567l-0.917,-0.55l-0.875,-0.541l-0.958,-0.55l-0.875,-0.525l-0.917,-0.517l-0.958,-0.525l-0.917,-0.508l-0.916,-0.5l-0.917,-0.492l-0.917,-0.483l-0.958,-0.48l-0.917,-0.466l-0.958,-0.467l-0.958,-0.45l-0.917,-0.45l-0.958,-0.437l-0.959,-0.43l-0.916,-0.416l-0.959,-0.417l-0.999,-0.412l-0.917,-0.392l-0.958,-0.388l-1,-0.387l-0.959,-0.367l-1.916,-0.725l-1,-0.35l-0.959,-0.337l-0.958,-0.329l-1,-0.325l-0.958,-0.313l-0.959,-0.304l-2,-0.592l-0.958,-0.279l-0.958,-0.271l-1,-0.262l-1,-0.254l-0.959,-0.246l-1,-0.242l-1,-0.229l-0.958,-0.221l-1,-0.208l-1,-0.204l-1,-0.196l-0.958,-0.188l-1,-0.175l-1,-0.171l-1,-0.158l-1.042,-0.158l-0.417,-0.067l-0.5,-0.067l-0.5,-0.07l-0.5,-0.067l-0.5,-0.063l-0.5,-0.058l-0.458,-0.058l-0.5,-0.059l-0.5,-0.054l-0.5,-0.05l-0.5,-0.054l-1.5,-0.137l-0.5,-0.038l-0.5,-0.042l-0.5,-0.037l-0.458,-0.033l-0.5,-0.034l-1,-0.058l-1,-0.05l-0.459,-0.021l-1.5,-0.05l-0.499,-0.008l-0.5,-0.013l-0.5,-0.008l-0.5,-0.004l-0.459,-0.004l-1.958,-0l-352.914,-0.088l-0.75,0.013Zm2250.78,-1717.08l-1518.16,2629.59l1563.53,-0l4.292,-2632.64l-49.666,3.046Zm-1407.37,2012.89l-1020.83,-1768.15l162.707,-281.781l2046.86,-9.029l-1188.74,2058.96Zm-829.202,-2000.06l-133.874,231.91l963.076,1668.15l1101.91,-1908.57l-1931.11,8.516Zm350.039,1494.87l-1270.82,-0l635.412,-1100.58l635.412,1100.58Zm-1184.2,-50.001l1097.62,0l-548.829,-950.58l-548.787,950.58Z" style="fill:url(#_Linear3);"/>
            </g>
        </g>
    </g>
    <defs>
        <radialGradient id="_Radial2" cx="0" cy="0" r="1" gradientUnits="userSpaceOnUse" gradientTransform="matrix(4949.71,0,0,4949.78,3281.77,-626.47)">
            <stop offset="0" style="stop-color:#f9a6ff;stop-opacity:1"/>
            <stop offset="1" style="stop-color:#ea73ff;stop-opacity:1"/>
        </radialGradient>
        <linearGradient id="_Linear3" x1="0" y1="0" x2="1" y2="0" gradientUnits="userSpaceOnUse" gradientTransform="matrix(2.55133e-13,4166.69,-4166.64,2.55136e-13,159606,156.626)">
            <stop offset="0" style="stop-color:#f7b3ff;stop-opacity:1"/>
            <stop offset="1" style="stop-color:#ee8aff;stop-opacity:1"/>
        </linearGradient>
    </defs>
</svg>
