<svg xmlns="http://www.w3.org/2000/svg" width="128" height="128" viewBox="0 0 4438 4474">
    <g>
        <path d="M4315.52,286.301c0,-68.986 -56.014,-125 -124.999,-125l-3916.65,-0c-68.986,-0 -125,56.014 -125,125l0,3916.69c0,68.986 56.014,125 125,125l3916.65,0c68.985,0 124.999,-56.014 124.999,-125l0,-3916.69Z" style="fill:none;"/>
        <g>
            <clipPath id="_clip1">
                <path d="M4315.52,286.301c0,-68.986 -56.014,-125 -124.999,-125l-3916.65,-0c-68.986,-0 -125,56.014 -125,125l0,3916.69c0,68.986 56.014,125 125,125l3916.65,0c68.985,0 124.999,-56.014 124.999,-125l0,-3916.69Z"/>
            </clipPath>
            <g clip-path="url(#_clip1)">
                <path d="M4315.52,286.301c0,-68.986 -56.014,-125 -124.999,-125l-3916.65,-0c-68.986,-0 -125,56.014 -125,125l0,3916.69c0,68.986 56.014,125 125,125l3916.65,0c68.985,0 124.999,-56.014 124.999,-125l0,-3916.69Z" fill="#c9284d"/>
                <path d="M4315.52,286.301c0,-68.986 -56.014,-125 -124.999,-125l-2333.32,-0l-1708.33,2958.94l0,1082.75c0,68.986 56.014,125 125,125l3916.65,0c68.985,0 124.999,-56.014 124.999,-125l0,-3916.69Z" fill="#bd163d"/>
                <path d="M2075.32,4327.99l-1926.45,0l0.019,-1135.59l635.41,-1100.56l1291.03,2236.16Zm895.829,0l-833.33,0c-407.359,-704.661 -804.452,-1390.48 -1210.17,-2096.09c-67.657,-118.745 -68.937,-268.554 0.732,-389.821l303.838,-526.08l1738.93,3011.99Zm895.83,0l-833.33,0l-1770.18,-3066.11l416.645,-721.694l2186.87,3787.8Zm62.499,0l-2218.1,-3841.93l187.499,-324.761l458.312,-0l1958.33,3389.79l0,776.9l-386.036,0Zm386.036,-4166.69l0,3283.7l-1895.83,-3283.7l1895.83,-0Z" fill="#8d102d"/>
                <path d="M784.284,2200.08l1228.54,2127.91l-1863.95,0l0,-1027.33l635.414,-1100.58Zm3531.24,2127.91l-323.54,0l-2218.12,-3841.93l187.499,-324.76l333.332,-0l2020.83,3500.21l0,666.482Zm-511.039,0l-708.331,0l-1759.78,-3084.15l343.749,-595.399l2124.37,3679.55Zm-895.83,0l-708.33,0c-0,0 -917.575,-1589.86 -1224.98,-2121.76c-60.207,-104.17 -60.226,-232.976 -0.05,-337.164l256.929,-444.848l1676.43,2903.77Zm-426.456,-4166.69l1833.33,-0l0,3175.44l-1833.33,-3175.44Z" style="fill:url(#_Radial2);"/>
                <path d="M3887.68,4472.11l-708.73,1l-1842.59,-3229.28l343.749,-595.399l2207.57,3823.67Zm-896.479,-1.125l-709.951,-2.833l-43.504,-75.376l-117.316,-203.242l-171.325,-296.815l-99.728,-172.767l-105.808,-183.293l-109.408,-189.526l-110.537,-191.472l-109.187,-189.121l-105.366,-182.489l-99.067,-171.567l-46.399,-80.347l-43.896,-76.004l-41.087,-71.13l-37.963,-65.721l-34.533,-59.767l-30.792,-53.288l-0.704,-1.225l-1.391,-2.45l-0.688,-1.233l-0.679,-1.229l-0.675,-1.238l-0.671,-1.233l-0.666,-1.238l-0.659,-1.241l-0.654,-1.242l-0.65,-1.246l-0.642,-1.246l-0.637,-1.25l-0.633,-1.25l-0.625,-1.254l-0.621,-1.254l-0.617,-1.254l-0.608,-1.258l-0.604,-1.263l-0.6,-1.262l-0.592,-1.263l-0.592,-1.267l-0.579,-1.266l-0.579,-1.271l-0.571,-1.271l-0.567,-1.275l-0.558,-1.275l-0.554,-1.275l-0.55,-1.279l-0.546,-1.279l-0.537,-1.284l-0.534,-1.283l-0.525,-1.288l-0.521,-1.283l-0.516,-1.292l-0.513,-1.287l-0.504,-1.292l-0.5,-1.296l-0.492,-1.291l-0.487,-1.3l-0.483,-1.296l-0.48,-1.3l-0.47,-1.3l-0.467,-1.304l-0.463,-1.304l-0.454,-1.305l-0.45,-1.308l-0.446,-1.308l-0.437,-1.309l-0.433,-1.308l-0.43,-1.313l-0.42,-1.316l-0.417,-1.313l-0.413,-1.316l-0.404,-1.317l-0.4,-1.321l-0.396,-1.321l-0.387,-1.321l-0.383,-1.32l-0.38,-1.325l-0.375,-1.325l-0.366,-1.325l-0.363,-1.325l-0.354,-1.33l-0.35,-1.329l-0.346,-1.333l-0.337,-1.329l-0.338,-1.334l-0.65,-2.666l-0.316,-1.338l-0.313,-1.337l-0.308,-1.338l-0.3,-1.337l-0.296,-1.342l-0.288,-1.338l-0.283,-1.341l-0.279,-1.342l-0.275,-1.346l-0.267,-1.341l-0.262,-1.346l-0.259,-1.346l-0.25,-1.346l-0.245,-1.346l-0.242,-1.35l-0.233,-1.35l-0.23,-1.346l-0.224,-1.35l-0.217,-1.354l-0.213,-1.35l-0.208,-1.354l-0.2,-1.35l-0.196,-1.354l-0.191,-1.354l-0.184,-1.354l-0.179,-1.355l-0.175,-1.358l-0.171,-1.354l-0.162,-1.359l-0.159,-1.358l-0.15,-1.358l-0.145,-1.359l-0.142,-1.358l-0.267,-2.717l-0.125,-1.362l-0.116,-1.358l-0.113,-1.363l-0.108,-1.358l-0.104,-1.363l-0.096,-1.362l-0.092,-1.363l-0.167,-2.725l-0.141,-2.725l-0.063,-1.362l-0.058,-1.363l-0.054,-1.362l-0.046,-1.367l-0.042,-1.362l-0.037,-1.363l-0.029,-1.367l-0.025,-1.362l-0.021,-1.367l-0.013,-1.362l-0.008,-1.367l-0.004,-1.363l0.004,-1.362l0.008,-1.367l0.013,-1.362l0.016,-1.367l0.025,-1.362l0.034,-1.367l0.033,-1.363l0.042,-1.362l0.046,-1.367l0.054,-1.362l0.058,-1.363l0.063,-1.362l0.066,-1.363l0.075,-1.362l0.079,-1.363l0.088,-1.362l0.092,-1.363l0.095,-1.362l0.1,-1.363l0.109,-1.362l0.112,-1.359l0.117,-1.362l0.125,-1.359l0.129,-1.358l0.138,-1.362l0.137,-1.359l0.146,-1.358l0.154,-1.354l0.154,-1.359l0.163,-1.358l0.171,-1.354l0.175,-1.358l0.175,-1.355l0.375,-2.708l0.195,-1.354l0.205,-1.354l0.204,-1.35l0.212,-1.354l0.442,-2.701l0.229,-1.35l0.233,-1.345l0.242,-1.35l0.246,-1.346l0.25,-1.346l0.254,-1.346l0.262,-1.346l0.267,-1.346l0.275,-1.341l0.279,-1.342l0.284,-1.342l0.287,-1.341l0.296,-1.338l0.3,-1.341l0.308,-1.338l0.313,-1.337l0.316,-1.334l0.321,-1.337l0.329,-1.334l0.334,-1.329l0.337,-1.333l0.346,-1.329l0.35,-1.329l0.354,-1.33l0.363,-1.329l0.366,-1.325l0.371,-1.325l0.379,-1.325l0.384,-1.321l0.387,-1.321l0.396,-1.32l0.4,-1.321l0.404,-1.317l0.413,-1.317l0.416,-1.312l0.421,-1.317l0.429,-1.312l0.434,-1.309l0.437,-1.312l0.442,-1.308l0.45,-1.305l0.454,-1.308l0.463,-1.304l0.466,-1.3l0.471,-1.3l0.475,-1.3l0.483,-1.3l0.488,-1.296l0.496,-1.296l0.5,-1.292l0.504,-1.291l0.508,-1.292l0.517,-1.287l0.521,-1.288l0.529,-1.287l0.529,-1.284l0.538,-1.279l0.545,-1.283l0.546,-1.279l0.554,-1.275l1.125,-2.55l0.571,-1.271l0.579,-1.271l0.58,-1.267l0.587,-1.266l1.192,-2.525l0.604,-1.263l0.612,-1.258l0.613,-1.254l0.621,-1.259l0.625,-1.25l0.633,-1.25l0.638,-1.25l0.641,-1.246l0.65,-1.246l0.654,-1.241l0.659,-1.242l0.662,-1.237l0.671,-1.238l0.675,-1.233l0.683,-1.234l0.688,-1.229l0.691,-1.229l0.696,-1.225l0.704,-1.225l256.929,-444.848l1758.99,3046.77Zm-897.7,-3.25l-2093.5,-4.958l45.721,-983.46l738.563,-1279.24l1309.22,2267.66Zm2315.85,-643.724l17.583,638.766l-355.502,2.833l-2297.57,-3979.55l277.662,-480.928l152.966,-0.07l2204.86,3818.95Zm-3015.34,-2580.03l1813.95,3179.09l593.19,-0.833l-2121.04,-3673.8l-286.099,495.545Zm-375.407,650.049l-0.612,1.062l-0.617,1.088l-0.583,1.033l-0.559,1.004l-0.608,1.096l-0.567,1.034l-1.15,2.133l-0.537,1.012l-0.579,1.105l-0.559,1.066l-0.525,1.021l-1.091,2.15l-0.538,1.079l-0.521,1.05l-0.512,1.054l-0.542,1.113l-0.504,1.05l-0.5,1.058l-0.508,1.088l-0.509,1.091l-0.512,1.113l-0.471,1.033l-0.475,1.067l-0.496,1.121l-0.483,1.092l-0.463,1.066l-0.454,1.067l-0.479,1.129l-0.462,1.096l-0.442,1.071l-0.442,1.075l-0.458,1.133l-0.454,1.129l-0.417,1.05l-0.417,1.079l-0.437,1.134l-0.425,1.108l-0.408,1.079l-0.409,1.104l-0.408,1.113l-0.404,1.117l-0.409,1.141l-0.383,1.084l-0.379,1.083l-0.383,1.121l-0.38,1.121l-0.383,1.145l-0.371,1.113l-0.354,1.087l-0.717,2.251l-0.341,1.095l-0.342,1.117l-0.35,1.15l-0.337,1.129l-0.334,1.134l-0.325,1.116l-0.312,1.096l-0.329,1.171l-0.309,1.121l-0.3,1.1l-0.308,1.158l-0.304,1.154l-0.284,1.088l-0.287,1.125l-0.288,1.158l-0.279,1.142l-0.283,1.158l-0.263,1.108l-0.258,1.113l-0.267,1.162l-0.262,1.163l-0.246,1.125l-0.246,1.146l-0.246,1.15l-0.233,1.129l-0.229,1.129l-0.229,1.15l-0.229,1.171l-0.213,1.125l-0.217,1.154l-0.208,1.154l-0.204,1.138l-0.204,1.167l-0.188,1.12l-0.187,1.134l-0.196,1.208l-0.179,1.129l-0.171,1.125l-0.342,2.342l-0.162,1.162l-0.159,1.134l-0.15,1.137l-0.15,1.171l-0.137,1.125l-0.138,1.167l-0.137,1.183l-0.129,1.138l-0.125,1.166l-0.117,1.138l-0.117,1.175l-0.112,1.175l-0.104,1.129l-0.1,1.179l-0.096,1.138l-0.088,1.141l-0.091,1.209l-0.084,1.137l-0.075,1.146l-0.075,1.208l-0.066,1.138l-0.063,1.137l-0.058,1.18l-0.054,1.141l-0.05,1.175l-0.046,1.175l-0.038,1.142l-0.037,1.179l-0.029,1.179l-0.025,1.138l-0.021,1.141l-0.017,1.18l-0.012,1.179l-0.009,1.137l0,2.321l0.013,1.175l0.008,1.183l0.017,1.138l0.021,1.175l0.025,1.142l0.033,1.145l0.075,2.351l0.046,1.179l0.05,1.175l0.054,1.141l0.058,1.138l0.063,1.179l0.067,1.142l0.075,1.171l0.079,1.175l0.079,1.145l0.087,1.171l0.092,1.138l0.1,1.179l0.1,1.167l0.104,1.137l0.109,1.138l0.116,1.175l0.125,1.175l0.121,1.137l0.129,1.167l0.138,1.171l0.137,1.137l0.138,1.129l0.308,2.342l0.158,1.175l0.159,1.133l0.166,1.13l0.171,1.158l0.184,1.179l0.183,1.175l0.179,1.108l0.188,1.13l0.195,1.17l0.205,1.167l0.2,1.133l0.208,1.121l0.212,1.154l0.225,1.163l0.225,1.167l0.221,1.116l0.234,1.129l0.241,1.163l0.242,1.15l0.25,1.146l0.246,1.129l0.254,1.125l0.267,1.162l0.266,1.146l0.263,1.109l0.283,1.162l0.279,1.142l0.279,1.104l0.284,1.121l0.304,1.158l0.3,1.138l0.3,1.121l0.308,1.137l0.304,1.1l0.325,1.154l0.325,1.134l0.325,1.116l0.33,1.134l0.337,1.116l0.333,1.096l0.346,1.125l0.359,1.15l0.358,1.129l0.362,1.125l0.359,1.109l0.362,1.091l0.375,1.121l0.379,1.113l0.384,1.116l0.391,1.121l0.384,1.083l0.408,1.138l0.392,1.083l0.408,1.113l0.425,1.137l0.404,1.084l0.413,1.075l0.429,1.108l0.442,1.133l0.425,1.08l0.433,1.075l0.458,1.129l0.45,1.1l0.459,1.104l0.437,1.042l0.467,1.091l0.483,1.129l0.463,1.067l0.479,1.092l0.487,1.096l0.475,1.062l0.496,1.088l0.5,1.091l0.492,1.059l0.512,1.087l0.513,1.083l0.508,1.059l0.525,1.079l0.513,1.054l1.075,2.158l0.529,1.046l0.546,1.075l0.541,1.042l0.558,1.075l0.567,1.075l0.55,1.037l0.575,1.067l0.563,1.042l0.566,1.033l0.604,1.092l0.58,1.033l0.583,1.034l0.6,1.058l0.629,1.092l30.763,53.237l34.537,59.771l37.962,65.722l41.088,71.133l43.899,76.009l46.4,80.346l99.066,171.572l105.367,182.489l109.191,189.125l110.537,191.468l109.408,189.53l105.803,183.289l99.729,172.771l171.329,296.819l117.316,203.234l29.137,50.5l594.214,2.375l-1672.2,-2896.45l-213.599,369.827Zm-923.504,1599.75l-42.729,919.117l1954.41,4.625l-1222.5,-2117.45l-689.18,1193.71Zm1985.3,-3438.67l-248.803,430.94l2268.57,3929.3l275.394,-2.209l-15.833,-575.107l-2184.1,-3782.97l-95.233,0.042Zm2356.99,3492.71l-2045.18,-3542.39l2016.43,-5.45l28.75,3547.84Zm-1958.71,-3492.62l1907.17,3303.36l-26.791,-3308.44l-1880.38,5.083Z" style="fill:url(#_Linear3);"/>
            </g>
        </g>
    </g>
    <defs>
        <radialGradient id="_Radial2" cx="0" cy="0" r="1" gradientUnits="userSpaceOnUse" gradientTransform="matrix(4949.73,0,0,4949.78,3333.21,-621.791)">
            <stop offset="0" style="stop-color:#ffae71;stop-opacity:1"/>
            <stop offset="1" style="stop-color:#ff9350;stop-opacity:1"/>
        </radialGradient>
        <linearGradient id="_Linear3" x1="0" y1="0" x2="1" y2="0" gradientUnits="userSpaceOnUse" gradientTransform="matrix(2.55134e-13,4166.69,-4166.65,2.55136e-13,169334,161.301)">
            <stop offset="0" style="stop-color:#ffbc8f;stop-opacity:1"/>
            <stop offset="1" style="stop-color:#ffa16b;stop-opacity:1"/>
        </linearGradient>
    </defs>
</svg>
