<?xml version="1.0" encoding="UTF-8" standalone="no"?><!DOCTYPE svg PUBLIC "-//W3C//DTD SVG 1.1//EN" "http://www.w3.org/Graphics/SVG/1.1/DTD/svg11.dtd"><svg width="100%" height="100%" viewBox="0 0 612 501" version="1.1" xmlns="http://www.w3.org/2000/svg" xmlns:xlink="http://www.w3.org/1999/xlink" xml:space="preserve" xmlns:serif="http://www.serif.com/" style="fill-rule:evenodd;clip-rule:evenodd;stroke-linejoin:round;stroke-miterlimit:2;"><g id="Emblem"><path d="M0,187.067c0,56.358 29.833,107.095 76.521,141.391c3.754,2.713 6.204,7.163 6.204,12.192c0,1.646 -0.346,3.187 -0.783,4.771c-3.721,14.087 -9.692,36.666 -9.971,37.721c-0.463,1.779 -1.188,3.629 -1.188,5.475c0,4.141 3.3,7.479 7.384,7.479c1.604,-0 2.908,-0.604 4.258,-1.392l48.483,-28.367c3.655,-2.141 7.513,-3.45 11.767,-3.45c2.267,0 4.454,0.342 6.521,0.984c22.617,6.591 47.012,10.258 72.292,10.258c122.312,0 221.491,-83.754 221.491,-187.062c0,-103.317 -99.179,-187.067 -221.491,-187.067c-122.325,-0 -221.488,83.75 -221.488,187.067" style="fill:#fff;fill-rule:nonzero;"/><path d="M0.005,187.067c-0,56.359 29.833,107.096 76.521,141.392c3.754,2.708 6.208,7.163 6.208,12.192c0,1.65 -0.35,3.187 -0.787,4.767c-3.721,14.091 -9.688,36.67 -9.971,37.724c-0.463,1.78 -1.188,3.63 -1.188,5.471c0,4.142 3.296,7.484 7.379,7.484c1.609,-0 2.913,-0.605 4.267,-1.392l48.479,-28.367c3.654,-2.141 7.513,-3.446 11.763,-3.446c2.271,0 4.45,0.338 6.521,0.98c22.616,6.591 47.016,10.254 72.295,10.254c122.309,-0 221.48,-83.75 221.48,-187.059c-0,-103.316 -99.171,-187.066 -221.48,-187.066c-122.325,-0 -221.487,83.75 -221.487,187.067Z" style="fill:url(#_Linear1);fill-rule:nonzero;"/><path d="M242.659,325.93c0,86.038 82.583,155.771 184.45,155.771c21.046,-0 41.367,-3.046 60.208,-8.538c1.705,-0.525 3.53,-0.816 5.417,-0.816c3.542,-0 6.763,1.087 9.804,2.866l40.375,23.621c1.117,0.663 2.213,1.167 3.55,1.167c3.404,-0 6.15,-2.788 6.15,-6.234c0,-1.541 -0.6,-3.079 -0.996,-4.554c-0.229,-0.879 -5.2,-19.683 -8.304,-31.421c-0.358,-1.312 -0.646,-2.587 -0.646,-3.966c0,-4.192 2.034,-7.888 5.163,-10.154c38.883,-28.546 63.733,-70.809 63.733,-117.742c0,-86.029 -82.579,-155.762 -184.454,-155.762c-101.867,-0 -184.45,69.733 -184.45,155.762Z" style="fill:url(#_Linear2);fill-rule:nonzero;"/><path d="M465.91,278.397c-0,13.825 11.054,25.03 24.687,25.03c13.634,-0 24.692,-11.205 24.692,-25.03c0,-13.825 -11.058,-25.037 -24.692,-25.037c-13.633,-0 -24.687,11.212 -24.687,25.037" style="fill:#919191;fill-rule:nonzero;"/><path d="M342.462,278.397c0,13.825 11.054,25.03 24.692,25.03c13.637,-0 24.691,-11.205 24.691,-25.03c0,-13.825 -11.054,-25.037 -24.691,-25.037c-13.638,-0 -24.692,11.212 -24.692,25.037" style="fill:#919191;fill-rule:nonzero;"/><path d="M177.042,126.943c0,16.592 -13.262,30.042 -29.629,30.042c-16.362,-0 -29.621,-13.45 -29.621,-30.042c0,-16.588 13.259,-30.033 29.621,-30.033c16.367,-0 29.629,13.445 29.629,30.033" style="fill:#168743;fill-rule:nonzero;"/><path d="M325.179,126.943c0,16.592 -13.267,30.042 -29.629,30.042c-16.363,-0 -29.629,-13.45 -29.629,-30.042c-0,-16.588 13.266,-30.033 29.629,-30.033c16.362,-0 29.629,13.445 29.629,30.033" style="fill:#168743;fill-rule:nonzero;"/></g><defs><linearGradient id="_Linear1" x1="0" y1="0" x2="1" y2="0" gradientUnits="userSpaceOnUse" gradientTransform="matrix(0,-396.095,396.095,-0,221.491,396.095)"><stop offset="0" style="stop-color:#05cd66;stop-opacity:1"/><stop offset="0.06" style="stop-color:#05cd66;stop-opacity:1"/><stop offset="0.95" style="stop-color:#61f380;stop-opacity:1"/><stop offset="1" style="stop-color:#61f380;stop-opacity:1"/></linearGradient><linearGradient id="_Linear2" x1="0" y1="0" x2="1" y2="0" gradientUnits="userSpaceOnUse" gradientTransform="matrix(0,-329.834,329.834,-0,427.109,500)"><stop offset="0" style="stop-color:#d9d9d9;stop-opacity:1"/><stop offset="0.08" style="stop-color:#d9d9d9;stop-opacity:1"/><stop offset="1" style="stop-color:#f0f0f0;stop-opacity:1"/></linearGradient></defs></svg>